<svg xmlns="http://www.w3.org/2000/svg" width="218.318" height="206"><g data-name="Group 21" opacity=".462"><path data-name="Fill 1" d="M150 83.825a23.629 23.629 0 00-41.516-15.635A23.607 23.607 0 0067 83.825C67 116.649 108.518 139 108.518 139S150 115.892 150 83.825" fill="#f28c00"/><path data-name="Stroke 3" d="M181 72.012A41.406 41.406 0 00108.472 45.1 41.367 41.367 0 0036 72.012C36 128.524 108.528 167 108.528 167S181 127.222 181 72.012z" fill="none" stroke="#f28c00" stroke-linecap="round" stroke-miterlimit="10" stroke-width="10"/><path data-name="Stroke 5" d="M109 5v15" fill="none" stroke="#f28c00" stroke-linecap="round" stroke-miterlimit="10" stroke-width="10"/><path data-name="Stroke 7" d="M35 10l11 11" fill="none" stroke="#f28c00" stroke-linecap="round" stroke-miterlimit="10" stroke-width="10"/><path data-name="Stroke 9" d="M5 85h15" fill="none" stroke="#f28c00" stroke-linecap="round" stroke-miterlimit="10" stroke-width="10"/><path data-name="Stroke 11" d="M213.318 83.751H199" fill="none" stroke="#f28c00" stroke-linecap="round" stroke-miterlimit="10" stroke-width="10"/><path data-name="Stroke 13" d="M183 9l-11 11" fill="none" stroke="#f28c00" stroke-linecap="round" stroke-miterlimit="10" stroke-width="10"/><path data-name="Stroke 15" d="M109 201v-15" fill="none" stroke="#f28c00" stroke-linecap="round" stroke-miterlimit="10" stroke-width="10"/><path data-name="Stroke 17" d="M35 157l11-11" fill="none" stroke="#f28c00" stroke-linecap="round" stroke-miterlimit="10" stroke-width="10"/><path data-name="Stroke 19" d="M183 158l-11-11" fill="none" stroke="#f28c00" stroke-linecap="round" stroke-miterlimit="10" stroke-width="10"/></g></svg>