<svg width="195" height="220" xmlns="http://www.w3.org/2000/svg"><g stroke="#F28C00" stroke-width="10" fill="none" fill-rule="evenodd" stroke-linecap="round"><path d="M62.573 145.399a60.294 60.294 0 01-4.19-3.245c-13.048-11.053-21.347-27.605-21.347-46.096 0-33.309 26.899-60.317 60.086-60.317 33.191 0 60.103 27.008 60.103 60.317 0 18.258-8.08 34.62-20.852 45.673a59.904 59.904 0 01-3.976 3.157M56.545 75.54c7.16-15.284 22.638-25.867 40.58-25.867m-41.552 61.873a44.987 44.987 0 01-3.265-16.885m75.265 74.383c0 16.873-13.631 30.55-30.441 30.55-16.814 0-30.442-13.677-30.442-30.55m-3.94-23.431a13.098 13.098 0 013.94 9.382v13.715m64.823-23.097a13.098 13.098 0 00-3.94 9.382v13.715"/><path d="M84.454 197.129v4.419c0 7.026 5.675 12.722 12.678 12.722 7.001 0 12.677-5.696 12.677-12.722v-4.024M51.842 168.71h90.578m-57.805 14.778h25.03m14.97-79.827c0-8.684-7.015-15.726-15.67-15.726-4.725 0-8.945 2.094-11.826 5.404-2.873-3.31-7.089-5.404-11.819-5.404-8.65 0-15.654 7.042-15.654 15.726 0 21.668 27.496 36.422 27.496 36.422s27.473-15.254 27.473-36.422zm-34.986 32.246v32.804m15.002-32.804v32.804M97.131 5.04v13.474M32.245 32.523l9.493 9.527M5.727 98.002h13.425m170.611-1.231l-13.426.001m-13.961-65.12l-9.492 9.53"/></g></svg>