<svg width="649" height="359" xmlns="http://www.w3.org/2000/svg"><g fill="none" fill-rule="evenodd"><g stroke="#F28C00" stroke-linecap="round" stroke-width="5"><path d="M558.62 98.746a41.474 41.474 0 01-2.883-2.224c-8.98-7.58-14.69-18.93-14.69-31.61 0-22.84 18.51-41.36 41.35-41.36s41.36 18.52 41.36 41.36c0 12.52-5.56 23.74-14.35 31.32a41.201 41.201 0 01-2.736 2.164m-52.199-47.553c4.928-10.48 15.579-17.737 27.926-17.737m-28.595 42.427a30.752 30.752 0 01-2.247-11.578m51.796 51.005c0 11.57-9.381 20.95-20.95 20.95-11.57 0-20.948-9.38-20.948-20.95m-2.712-16.067a8.966 8.966 0 012.711 6.433v9.405m44.61-15.838a8.966 8.966 0 00-2.711 6.433v9.405"/><path d="M573.678 134.219v3.03a8.724 8.724 0 008.725 8.724 8.724 8.724 0 008.724-8.724v-2.76m-39.892-19.758h62.333m-39.778 10.134h17.224m10.301-54.739c0-5.955-4.827-10.784-10.784-10.784a10.768 10.768 0 00-8.138 3.706 10.742 10.742 0 00-8.133-3.706c-5.953 0-10.773 4.83-10.773 10.784 0 14.858 18.922 24.975 18.922 24.975s18.906-10.46 18.906-24.975zM577.24 92.238v22.494m10.323-22.494v22.494M582.402 2.5v9.24m-44.653 9.606l6.533 6.533M519.5 66.246h9.239m117.409-.844h-9.239m-9.607-44.654l-6.532 6.535"/></g><text font-family="Neuton-Bold, Neuton" font-size="10" font-weight="bold" letter-spacing=".01" fill="#FFF" transform="translate(519 2)"><tspan x="52.597" y="76.832">5735</tspan> <tspan x="52.597" y="88.832">7</tspan></text><path d="M581.137 146.212v4.035c0 20.92-16.958 37.879-37.878 37.879s-37.878-16.959-37.878-37.879V119.84C505.38 96.18 486.2 77 462.54 77s-42.839 19.18-42.839 42.84v32.412c0 19.813-16.061 35.874-35.874 35.874-19.813 0-35.874-16.061-35.874-35.874v-35.44c0-21.987-17.825-39.812-39.812-39.812-21.988 0-39.813 17.825-39.813 39.812v38.656c0 18.036-14.621 32.658-32.658 32.658s-32.658-14.622-32.658-32.658v-34.462C203.013 96.702 183.31 77 159.006 77S115 96.702 115 121.006v98.737c0 21.263-17.237 38.5-38.5 38.5h-6.167C52.476 258.243 38 272.719 38 290.576h0" stroke="#F28C00" stroke-width="5"/><path d="M51.81 316.52a7.913 7.913 0 00-13.883-5.192 7.885 7.885 0 00-5.967-2.72c-4.368 0-7.905 3.543-7.905 7.913 0 10.9 13.884 18.324 13.884 18.324s13.872-7.674 13.872-18.324" fill="#F28C00"/><path d="M62.02 312.689c0-7.583-6.148-13.734-13.734-13.734-4.142 0-7.838 1.83-10.362 4.72-2.52-2.89-6.214-4.72-10.359-4.72-7.582 0-13.72 6.151-13.72 13.734 0 18.924 24.097 31.808 24.097 31.808s24.078-13.32 24.078-31.808zm-24.074-22.413v5.092m-24.612-3.191l3.601 3.6M3.276 316.925h5.092m64.356-.465H67.99m-5.296-24.612l-3.6 3.6m-21.148 60.289v-5.092m-24.612-9.712l3.601-3.601m45.759 3.93l-3.6-3.601" stroke="#F28C00" stroke-width="5" stroke-linecap="round"/></g></svg>