<svg width="161" height="430" xmlns="http://www.w3.org/2000/svg" xmlns:xlink="http://www.w3.org/1999/xlink"><defs><linearGradient x1="0%" y1="50%" x2="91.05%" y2="50%" id="b"><stop stop-color="#FDC200" offset="0%"/><stop stop-color="#F58A1E" offset="100%"/></linearGradient><linearGradient x1="0%" y1="50%" x2="100%" y2="50%" id="e"><stop stop-color="#F6931D" offset="0%"/><stop stop-color="#F05923" offset="100%"/></linearGradient><path d="M20.975 140.994c-27.887 27.887-27.887 73.1 0 100.987L185.81 431.315l-24.263-142.13V.42L20.975 140.994z" id="a"/><path d="M3.45 0a3.483 3.483 0 00-2.429 5.95L104.136 109H114L5.953 1.02A3.477 3.477 0 003.524 0H3.45z" id="d"/></defs><g fill="none" fill-rule="evenodd"><g transform="matrix(-1 0 0 1 160.644 32.785)"><mask id="c" fill="#fff"><use xlink:href="#a"/></mask><path d="M20.975 140.994c-27.887 27.887-27.887 73.1 0 100.987l140.572 156.202V.421L20.975 140.994z" fill="url(#b)" mask="url(#c)"/></g><g opacity=".414" transform="rotate(180 28.5 31)"><mask id="f" fill="#fff"><use xlink:href="#d"/></mask><path d="M3.45 0a3.483 3.483 0 00-2.429 5.95L104.136 109H114L5.953 1.02A3.477 3.477 0 003.524 0H3.45z" fill="url(#e)" mask="url(#f)"/></g></g></svg>