<svg width="542" height="520" xmlns="http://www.w3.org/2000/svg" xmlns:xlink="http://www.w3.org/1999/xlink"><defs><path id="a" d="M.478.7h653v522h-653z"/></defs><g fill="none" fill-rule="evenodd"><g transform="matrix(-1 0 0 1 649 -.7)"><mask id="b" fill="#fff"><use xlink:href="#a"/></mask><path d="M601.067 494.897c35.693 35.737 93.562 35.737 129.255 0l29.156-29.192V-.3h-653l494.589 495.197z" fill-opacity=".515" fill="#FFECD7" mask="url(#b)"/></g><path d="M82.538 14.22a2.808 2.808 0 105.616 0 2.808 2.808 0 00-5.616 0m-23.828 0a2.808 2.808 0 105.616 0 2.808 2.808 0 00-5.616 0m-23.827 0a2.808 2.808 0 105.616 0 2.808 2.808 0 00-5.616 0m-23.828 0a2.808 2.808 0 105.616 0 2.808 2.808 0 00-5.616 0m71.483 23.826a2.808 2.808 0 105.617 0 2.808 2.808 0 00-5.617 0m-23.828 0a2.808 2.808 0 105.617 0 2.808 2.808 0 00-5.617 0m-23.827 0a2.808 2.808 0 105.617 0 2.808 2.808 0 00-5.617 0m-23.828 0a2.808 2.808 0 105.617 0 2.808 2.808 0 00-5.617 0m71.483 23.828a2.808 2.808 0 105.616 0 2.808 2.808 0 00-5.616 0m-23.828 0a2.808 2.808 0 105.616 0 2.808 2.808 0 00-5.616 0m-23.827 0a2.808 2.808 0 105.616 0 2.808 2.808 0 00-5.616 0m-23.828 0a2.808 2.808 0 105.616 0 2.808 2.808 0 00-5.616 0m71.483 23.828a2.808 2.808 0 105.616 0 2.808 2.808 0 00-5.616 0m-23.828 0a2.808 2.808 0 105.616 0 2.808 2.808 0 00-5.616 0m-23.827 0a2.808 2.808 0 105.616 0 2.808 2.808 0 00-5.616 0m-23.828 0a2.808 2.808 0 105.616 0 2.808 2.808 0 00-5.616 0m71.483 23.827a2.808 2.808 0 105.617 0 2.808 2.808 0 00-5.617 0m-23.828 0a2.808 2.808 0 105.617 0 2.808 2.808 0 00-5.617 0m-23.827 0a2.808 2.808 0 105.617 0 2.808 2.808 0 00-5.617 0m-23.828 0a2.808 2.808 0 105.617 0 2.808 2.808 0 00-5.617 0" fill="#FDC200"/></g></svg>