<svg width="166" height="418" xmlns="http://www.w3.org/2000/svg" xmlns:xlink="http://www.w3.org/1999/xlink"><defs><linearGradient x1="0%" y1="50%" x2="100%" y2="50%" id="b"><stop stop-color="#F6931D" offset="0%"/><stop stop-color="#F05923" offset="100%"/></linearGradient><linearGradient x1="0%" y1="50%" x2="100%" y2="50%" id="e"><stop stop-color="#F6931D" offset="0%"/><stop stop-color="#F05923" offset="100%"/></linearGradient><path d="M0 .346v373.126c14.822 0 29.644-5.655 40.952-16.963L169.6 227.86c22.617-22.617 22.617-59.287 0-81.905L40.952 17.31C29.644 6 14.822.346 0 .346z" id="a"/><path d="M3.45 0a3.483 3.483 0 00-2.429 5.95L104.136 109H114L5.953 1.02A3.477 3.477 0 003.524 0H3.45z" id="d"/></defs><g fill="none" fill-rule="evenodd"><g transform="matrix(-1 0 0 1 187 -3.818)"><mask id="c" fill="#fff"><use xlink:href="#a"/></mask><path d="M0 .346v373.126c14.822 0 29.644-5.655 40.952-16.963L169.6 227.86c22.617-22.617 22.617-59.287 0-81.905L40.952 17.31C29.644 6 14.822.346 0 .346z" fill="url(#b)" mask="url(#c)"/></g><path d="M78.524 214.495c0 8.392 6.802 15.195 15.195 15.195 8.391 0 15.194-6.803 15.194-15.195S102.11 199.3 93.72 199.3c-8.393 0-15.195 6.803-15.195 15.195z" stroke="#FFF" stroke-width="6"/><g opacity=".414" transform="translate(75 322)"><mask id="f" fill="#fff"><use xlink:href="#d"/></mask><path d="M3.45 0a3.483 3.483 0 00-2.429 5.95L104.136 109H114L5.953 1.02A3.477 3.477 0 003.524 0H3.45z" fill="url(#e)" mask="url(#f)"/></g></g></svg>