<svg xmlns="http://www.w3.org/2000/svg" width="58.851" height="58.851"><defs><linearGradient id="b" x1="1" y1=".5" x2="0" y2=".5" gradientUnits="objectBoundingBox"><stop offset="0" stop-color="#f6931d"/><stop offset="1" stop-color="#f05923"/></linearGradient><clipPath id="a"><path data-name="Clip 14" d="M-.5.5a1.72 1.72 0 010 2.433c-2.969 2.97-6.729 2.171-9.75 1.528-3.07-.653-5.031-.973-6.6.595s-1.248 3.53-.595 6.6c.642 3.021 1.442 6.78-1.528 9.75-2.969 2.969-6.729 2.17-9.749 1.527-3.07-.653-5.031-.974-6.6.595-1.568 1.568-1.247 3.529-.594 6.6.642 3.02 1.442 6.78-1.527 9.749-2.969 2.97-6.728 2.17-9.749 1.527-3.07-.653-5.031-.974-6.6.595-1.569 1.568-1.248 3.529-.595 6.6.644 3.02 1.443 6.779-1.527 9.748a1.72 1.72 0 01-2.433 0 1.72 1.72 0 010-2.433c1.568-1.568 1.247-3.529.594-6.6-.643-3.02-1.442-6.779 1.527-9.749 2.969-2.969 6.729-2.169 9.749-1.527 3.07.653 5.031.975 6.6-.594 1.568-1.568 1.247-3.529.595-6.6-.644-3.021-1.443-6.78 1.526-9.75 2.97-2.969 6.729-2.17 9.75-1.526 3.069.653 5.031.974 6.6-.6 1.569-1.568 1.249-3.529.6-6.6-.643-3.021-1.442-6.78 1.527-9.75 2.97-2.969 6.729-2.17 9.75-1.527 3.07.652 5.031.974 6.6-.6A1.715 1.715 0 01-1.721 0 1.715 1.715 0 01-.5.5" transform="rotate(-180 .115 -.085)" fill="none"/></clipPath></defs><g data-name="Group 15"><path data-name="Clip 14" d="M58.351.5a1.72 1.72 0 010 2.433c-2.969 2.97-6.729 2.171-9.75 1.528-3.07-.653-5.031-.973-6.6.595s-1.248 3.53-.595 6.6c.642 3.021 1.442 6.78-1.528 9.75-2.969 2.969-6.729 2.17-9.749 1.527-3.07-.653-5.031-.974-6.6.595-1.568 1.568-1.247 3.529-.594 6.6.642 3.02 1.442 6.78-1.527 9.749-2.969 2.97-6.728 2.17-9.749 1.527-3.07-.653-5.031-.974-6.6.595-1.569 1.568-1.248 3.529-.595 6.6.644 3.02 1.443 6.779-1.527 9.748a1.72 1.72 0 01-2.433 0 1.72 1.72 0 010-2.433c1.568-1.568 1.247-3.529.594-6.6-.643-3.02-1.442-6.779 1.527-9.749 2.969-2.969 6.729-2.169 9.749-1.527 3.07.653 5.031.975 6.6-.594 1.568-1.568 1.247-3.529.595-6.6-.644-3.021-1.443-6.78 1.526-9.75 2.97-2.969 6.729-2.17 9.75-1.526 3.069.653 5.031.974 6.6-.6 1.569-1.568 1.249-3.529.6-6.6-.643-3.021-1.442-6.78 1.527-9.75 2.97-2.969 6.729-2.17 9.75-1.527 3.07.652 5.031.974 6.6-.6A1.715 1.715 0 0157.13 0a1.715 1.715 0 011.221.5" fill="none"/><g data-name="Group 15" clip-path="url(#a)" transform="rotate(180 29.54 -.085)"><path data-name="Fill 13" d="M-.5.5a1.72 1.72 0 010 2.433c-2.969 2.97-6.729 2.171-9.75 1.528-3.07-.653-5.031-.973-6.6.595s-1.248 3.53-.595 6.6c.642 3.021 1.442 6.78-1.528 9.75-2.969 2.969-6.729 2.17-9.749 1.527-3.07-.653-5.031-.974-6.6.595-1.568 1.568-1.247 3.529-.594 6.6.642 3.02 1.442 6.78-1.527 9.749-2.969 2.97-6.728 2.17-9.749 1.527-3.07-.653-5.031-.974-6.6.595-1.569 1.568-1.248 3.529-.595 6.6.644 3.02 1.443 6.779-1.527 9.748a1.72 1.72 0 01-2.433 0 1.72 1.72 0 010-2.433c1.568-1.568 1.247-3.529.594-6.6-.643-3.02-1.442-6.779 1.527-9.749 2.969-2.969 6.729-2.169 9.749-1.527 3.07.653 5.031.975 6.6-.594 1.568-1.568 1.247-3.529.595-6.6-.644-3.021-1.443-6.78 1.526-9.75 2.97-2.969 6.729-2.17 9.75-1.526 3.069.653 5.031.974 6.6-.6 1.569-1.568 1.249-3.529.6-6.6-.643-3.021-1.442-6.78 1.527-9.75 2.97-2.969 6.729-2.17 9.75-1.527 3.07.652 5.031.974 6.6-.6A1.715 1.715 0 01-1.721 0 1.715 1.715 0 01-.5.5" transform="rotate(-180 .115 -.085)" fill="url(#b)"/></g></g></svg>